<svg xmlns="http://www.w3.org/2000/svg" xml:space="preserve" width="128" height="128" fill-rule="evenodd" stroke-linejoin="round" stroke-miterlimit="2" clip-rule="evenodd" viewBox="0 0 797 608"><path fill="#2a3690" d="M175.32 281.06S225.7 242.2 398.1 242.2c172.4 0 222.77 38.87 222.77 38.87a604.9 604.9 0 0 0-47.83 15.6C502 323.3 437.87 365.11 401.43 432.71a242.69 242.69 0 0 0-3.34 6.43c-1.09-2.17-2.2-4.31-3.34-6.43-36.44-67.6-100.57-109.42-171.6-136.07a604.9 604.9 0 0 0-47.83-15.59Z"/><path fill="#2a3690" d="M55.03 310.83v-.07c0-.4.01-.8.04-1.18l17.27-95.71-69.2-31.89L398.09 0l394.95 181.98-166.43 76.69c-58.9-24.18-139.53-39.4-228.52-39.4-88.99 0-169.63 15.22-228.52 39.4l-71.65-33.02 3.5 97.38c0 12.58-10.4 20.03-23.2 16.64a28.89 28.89 0 0 1-7.18-3.02h-.01l-.1-.06h-.01v-.01l-.06-.03-.04-.02h-.01v-.01l-.1-.06-.03-.02-.02-.01-.05-.03-.02-.01-.02-.01-.05-.03-.02-.01-.02-.02h-.01a2.52 2.52 0 0 0-.08-.06h-.01l-.03-.02-.03-.02-.02-.01-.03-.02-.04-.02-.04-.03-.03-.02-.03-.02-.03-.02-.05-.03-.04-.03h-.02V336l-.2-.12a34.07 34.07 0 0 1-11.47-12.57l-.1-.2v-.01l-.18-.33v-.01l-.1-.2v-.02l-.04-.06-.03-.06v-.01l-.1-.2v-.02l-.03-.04-.03-.07v-.02l-.02-.03-.02-.03v-.02l-.04-.06-.02-.05v-.01l-.01-.02-.09-.18v-.03l-.03-.05-.02-.05-.01-.02v-.01l-.02-.03-.01-.03-.02-.04-.02-.05-.02-.04v-.01l-.01-.02-.02-.04-.02-.05-.02-.03v-.01l-.01-.03-.01-.02v-.02l-.02-.03-.02-.04-.02-.04v-.03l-.01-.01-.02-.03v-.02l-.04-.08v-.02l-.02-.03v-.02l-.02-.03-.01-.03-.02-.04-.02-.04v-.01l-.01-.03-.01-.02v-.01l-.02-.05-.02-.03v-.03l-.02-.03-.01-.03-.01-.03v-.01l-.04-.08v-.02l-.02-.03v-.02l-.02-.03-.01-.04-.01-.03-.02-.04v-.02l-.02-.02v-.02l-.03-.08-.01-.02-.01-.03-.01-.02-.01-.03-.01-.03-.01-.02-.02-.06v-.02l-.02-.02v-.02l-.01-.02-.02-.05v-.02l-.02-.03-.01-.04-.01-.02-.01-.03v-.02l-.04-.08v-.02l-.01-.02v-.02l-.02-.05-.01-.02-.01-.02-.02-.06v-.02l-.01-.02v-.02l-.04-.08v-.02l-.01-.02-.01-.03-.01-.04-.01-.02v-.01c-.02-.03-.02-.06-.03-.1h-.01v-.03l-.01-.02-.02-.06v-.02l-.02-.02-.01-.04v-.03l-.02-.02v-.02l-.03-.09-.01-.03v-.03l-.02-.05-.01-.02-.02-.07-.01-.02v-.02l-.01-.02-.03-.1v-.02l-.02-.04-.01-.04v-.02h-.01c0-.04-.02-.07-.03-.1v-.03l-.01-.03-.02-.06v-.03l-.02-.05-.01-.03v-.02l-.01-.01-.03-.1v-.03l-.02-.03v-.05l-.01-.02-.03-.1v-.01l-.01-.02-.03-.1v-.02l-.01-.04-.01-.04v-.02h-.01l-.02-.1v-.02l-.01-.01v-.03l-.02-.06-.02-.09-.02-.04v-.03l-.01-.03v-.04h-.01l-.03-.15-.02-.05v-.03l-.01-.03v-.03l-.01-.01v-.02l-.02-.05a2 2 0 0 1-.01-.07l-.01-.06v-.03l-.02-.02V315.89l-.02-.04v-.01l-.03-.14v-.05l-.01-.02v-.02l-.01-.02v-.04h-.01l-.03-.15v-.05l-.01-.02v-.04l-.01-.03v-.01l-.01-.02-.01-.05-.01-.07v-.02l-.01-.04v-.03l-.01-.03v-.02l-.01-.01v-.02l-.01-.05-.02-.08v-.07l-.01-.02v-.05h-.01v-.03l-.01-.04v-.01l-.01-.07-.01-.06v-.03l-.01-.03v-.04l-.01-.02v-.05l-.03-.14V314.09l-.01-.01V314h-.01v-.02l-.01-.05v-.01l-.01-.07V313.78l-.01-.01V313.71l-.01-.01v-.07l-.02-.07V313.47l-.01-.02v-.06l-.01-.04v-.01l-.01-.07V313.2l-.01-.02V313.09l-.01-.03v-.03l-.01-.06V312.88l-.01-.03v-.09l-.01-.01V312.68l-.01-.08V312.51l-.01-.02v-.11l-.01-.07V312.22l-.01-.03v-.11l-.01-.07v-.13l-.01-.02V311.64l-.01-.02V311.33l-.01-.03V310.83Z"/><path fill="#80d73c" d="m123.22 291.63 1.12 31.4c0 14.6-6.6 25.94-16.35 32.93-9.15 6.57-21.68 9.57-35.63 5.88-22.45-5.95-40.25-29.03-40.25-51.08 0-.81.02-1.61.06-2.4.05-.96.17-1.9.34-2.85l5.35-29.66c-11.97-1.93-23.43-3.73-34.21-5.5A3.14 3.14 0 0 0 0 273.73C14.31 431.47 115.5 584.8 260.1 588.27h92.21a3.14 3.14 0 0 0 3.09-3.7c-5.81-31.96-22.68-63.48-46.97-94.66-33.57-43.08-81.34-85.58-133.2-127.89 90.4 27.76 207.53 121.55 219.51 242.85.1 1.02.69 1.92 1.57 2.42l.23.13.17.1.1.04.1.04c.12.05.25.1.37.13h.02l.38.08h.11l.07.01h.05l.03.01h.38l.07-.01.08-.01h.03l.38-.08h.02l.37-.13.1-.04.1-.04.17-.1.23-.13c.88-.5 1.47-1.4 1.57-2.42 11.97-121.3 129.12-215.09 219.52-242.85-51.87 42.3-99.64 84.8-133.2 127.9-24.3 31.17-41.17 62.69-46.98 94.65a3.14 3.14 0 0 0 3.1 3.7H536.07c144.6-3.47 245.8-156.8 260.08-314.54a3.14 3.14 0 0 0-3.63-3.38c-59.2 9.7-138.9 20.55-211.45 47.77-65.82 24.69-125.7 62.84-159.47 125.48-10.65 19.76-18.7 41.95-23.52 66.93-4.81-24.98-12.87-47.17-23.52-66.93-33.76-62.64-93.66-100.8-159.47-125.48-30.05-11.28-61.34-19.75-91.88-26.49Z"/></svg>