<?xml version="1.0" encoding="UTF-8" standalone="no"?>
<!DOCTYPE svg PUBLIC "-//W3C//DTD SVG 1.1//EN" "http://www.w3.org/Graphics/SVG/1.1/DTD/svg11.dtd">
<svg width="100%" height="100%" viewBox="0 0 115 115" version="1.1" xmlns="http://www.w3.org/2000/svg" xmlns:xlink="http://www.w3.org/1999/xlink" xml:space="preserve" xmlns:serif="http://www.serif.com/" style="fill-rule:evenodd;clip-rule:evenodd;stroke-linejoin:round;stroke-miterlimit:2;">
    <g transform="matrix(1.00759,0,0,1.10701,-22.1704,-39.3065)">
        <rect x="22.003" y="35.507" width="114.133" height="103.884" style="fill:none;"/>
        <g transform="matrix(0.656416,0,0,0.680795,-971.192,-12.7823)">
            <path d="M1637.24,190.868C1637.24,203.355 1620.55,213.493 1599.99,213.493C1579.43,213.493 1562.74,203.355 1562.74,190.868L1562.74,182.418C1562.74,174.595 1569.1,168.243 1576.92,168.243L1623.07,168.243L1623.25,168.244C1630.99,168.342 1637.24,174.656 1637.24,182.418L1637.24,190.868ZM1573.04,145.618C1574.3,151.58 1577.49,156.832 1581.92,160.689L1576.92,160.689C1564.92,160.689 1555.19,170.425 1555.19,182.418L1555.19,190.805C1535.94,189.933 1520.74,180.157 1520.74,168.243L1520.74,159.793C1520.74,151.97 1527.1,145.618 1534.92,145.618L1573.04,145.618ZM1626.95,145.618C1625.69,151.58 1622.5,156.832 1618.06,160.689L1623.07,160.689C1635.06,160.689 1644.8,170.425 1644.8,182.418L1644.8,190.805C1664.05,189.933 1679.24,180.157 1679.24,168.243L1679.24,159.793C1679.24,151.97 1672.89,145.618 1665.07,145.618L1626.95,145.618ZM1580.87,145.774C1580.3,143.915 1579.99,141.94 1579.99,139.893C1579.99,128.855 1588.95,119.893 1599.99,119.893C1611.03,119.893 1619.99,128.855 1619.99,139.893C1619.99,141.94 1619.68,143.915 1619.11,145.775L1619.11,145.777C1619.06,145.933 1619.01,146.089 1618.96,146.243L1618.96,146.251C1618.91,146.404 1618.86,146.556 1618.8,146.707L1618.8,146.719C1618.76,146.819 1618.72,146.92 1618.68,147.02L1618.65,147.11L1618.63,147.165L1618.62,147.181C1618.58,147.279 1618.54,147.377 1618.5,147.474L1618.47,147.563L1618.44,147.617L1618.44,147.637C1618.4,147.733 1618.36,147.828 1618.31,147.924L1618.28,148.01L1618.25,148.065L1618.24,148.087C1618.2,148.181 1618.15,148.275 1618.11,148.367L1618.07,148.451L1618.05,148.507L1618.03,148.531C1617.99,148.622 1617.95,148.713 1617.9,148.805L1617.86,148.887L1617.83,148.943L1617.82,148.969C1617.77,149.059 1617.73,149.148 1617.68,149.237L1617.63,149.317L1617.6,149.374L1617.59,149.4C1617.54,149.488 1617.49,149.576 1617.44,149.663L1617.44,149.675L1617.43,149.692L1617.4,149.74L1617.37,149.799L1617.35,149.825C1617.33,149.868 1617.3,149.912 1617.28,149.956L1617.22,150.054L1617.2,150.083L1617.19,150.096L1617.18,150.113L1617.16,150.157L1617.12,150.218L1617.11,150.243C1617.08,150.285 1617.06,150.328 1617.03,150.371L1616.97,150.466L1616.95,150.497L1616.94,150.51L1616.93,150.527L1616.9,150.568L1616.87,150.631L1616.85,150.654C1616.82,150.696 1616.8,150.738 1616.77,150.78L1616.71,150.872L1616.69,150.904L1616.68,150.918L1616.67,150.934L1616.64,150.972L1616.6,151.038L1616.59,151.058C1616.56,151.1 1616.53,151.141 1616.5,151.183L1616.44,151.271L1616.42,151.305L1616.41,151.319L1616.39,151.334L1616.37,151.369L1616.32,151.439L1616.31,151.456C1616.28,151.496 1616.25,151.537 1616.22,151.578L1616.16,151.663L1616.13,151.699L1616.12,151.713L1616.11,151.727L1616.09,151.76L1616.04,151.833L1616.03,151.846C1616,151.886 1615.97,151.927 1615.93,151.967L1615.87,152.048L1615.84,152.086L1615.83,152.1L1615.82,152.112L1615.8,152.143L1615.73,152.229C1615.7,152.269 1615.67,152.309 1615.64,152.348L1615.58,152.426L1615.54,152.466L1615.52,152.49C1615.46,152.568 1615.4,152.646 1615.33,152.723L1615.27,152.796L1615.23,152.839L1615.22,152.86C1615.15,152.937 1615.08,153.014 1615.02,153.089L1614.95,153.159L1614.91,153.205L1614.9,153.223C1614.83,153.298 1614.76,153.374 1614.69,153.449L1614.63,153.514L1614.59,153.563L1614.57,153.577C1614.5,153.652 1614.43,153.727 1614.36,153.8L1614.3,153.862L1614.24,153.92L1614.24,153.924C1614.17,153.998 1614.09,154.071 1614.02,154.144L1613.96,154.201L1613.9,154.263C1613.82,154.336 1613.75,154.408 1613.67,154.479L1613.61,154.532L1613.55,154.593C1613.47,154.665 1613.39,154.736 1613.31,154.807L1613.31,154.813C1613.19,154.918 1613.07,155.022 1612.95,155.125L1612.94,155.129C1612.82,155.233 1612.7,155.335 1612.58,155.435L1612.57,155.437C1610.74,156.926 1608.63,158.096 1606.34,158.863L1606.34,158.864C1606.18,158.915 1606.03,158.965 1605.88,159.013L1605.86,159.016C1605.76,159.047 1605.66,159.078 1605.56,159.108L1605.47,159.134L1605.4,159.151L1605.38,159.157C1605.28,159.185 1605.18,159.212 1605.08,159.239L1604.99,159.263L1604.93,159.278L1604.91,159.283L1604.9,159.286C1603.33,159.683 1601.68,159.893 1599.99,159.893C1598.3,159.893 1596.66,159.683 1595.09,159.286L1595.07,159.283L1595.05,159.277L1595,159.263L1594.94,159.247L1594.91,159.241L1594.9,159.238C1594.85,159.225 1594.8,159.212 1594.75,159.199L1594.64,159.167L1594.61,159.159L1594.59,159.154L1594.57,159.147L1594.52,159.134L1594.46,159.117L1594.43,159.109L1594.42,159.105C1594.37,159.092 1594.33,159.078 1594.28,159.064L1594.17,159.03L1594.14,159.021L1594.12,159.015L1594.09,159.007L1594.05,158.993L1593.99,158.974L1593.96,158.965L1593.95,158.961C1593.9,158.947 1593.86,158.932 1593.81,158.917L1593.7,158.881L1593.67,158.871L1593.65,158.863L1593.62,158.854L1593.58,158.842L1593.52,158.821L1593.49,158.81L1593.48,158.806C1593.43,158.791 1593.39,158.775 1593.34,158.759L1593.34,158.756L1593.31,158.746L1593.23,158.72L1593.2,158.71L1593.18,158.701L1593.15,158.691L1593.12,158.679L1593.06,158.656L1593.03,158.644L1593.01,158.64C1592.97,158.623 1592.93,158.607 1592.88,158.59L1592.87,158.586L1592.84,158.574L1592.78,158.549L1592.75,158.538L1592.72,158.527L1592.69,158.517L1592.66,158.505L1592.6,158.481L1592.57,158.467L1592.56,158.462C1592.51,158.445 1592.47,158.428 1592.43,158.411L1592.41,158.405L1592.38,158.391L1592.32,158.368L1592.29,158.355L1592.26,158.343L1592.24,158.332L1592.21,158.32L1592.15,158.294L1592.11,158.279L1592.1,158.274C1592.06,158.257 1592.02,158.239 1591.98,158.22L1591.96,158.214L1591.93,158.197L1591.88,158.175L1591.85,158.161L1591.82,158.148L1591.79,158.136L1591.77,158.125L1591.7,158.097L1591.67,158.08L1591.66,158.076C1591.62,158.057 1591.58,158.038 1591.54,158.019L1591.52,158.011L1591.48,157.993L1591.43,157.972L1591.4,157.957L1591.37,157.942L1591.35,157.929L1591.33,157.92L1591.26,157.89L1591.22,157.871L1591.11,157.813L1591.08,157.799L1591.04,157.779L1591,157.759L1590.97,157.742L1590.93,157.725L1590.91,157.713L1590.89,157.704L1590.83,157.672L1590.79,157.651L1590.76,157.634L1590.68,157.592L1590.64,157.575L1590.61,157.555L1590.57,157.535L1590.54,157.518L1590.5,157.499L1590.48,157.486L1590.46,157.478L1590.4,157.444L1590.36,157.421L1590.32,157.399L1590.25,157.361L1590.22,157.342L1590.18,157.32L1590.15,157.302L1590.11,157.283L1590.08,157.262L1590.04,157.242L1589.98,157.206L1589.94,157.181L1589.89,157.155L1589.83,157.12L1589.82,157.113L1589.8,157.098L1589.76,157.076L1589.73,157.058L1589.7,157.039L1589.66,157.015L1589.63,156.996L1589.56,156.958L1589.52,156.931L1589.47,156.901L1589.42,156.869L1589.41,156.861L1589.38,156.845L1589.35,156.822L1589.32,156.805L1589.29,156.785L1589.25,156.759L1589.22,156.741L1589.15,156.7L1589.11,156.671L1589.06,156.639L1589.02,156.609L1589,156.6L1588.97,156.582L1588.94,156.558L1588.91,156.543L1588.88,156.521L1588.84,156.492L1588.81,156.476L1588.75,156.434L1588.7,156.402L1588.66,156.367L1588.62,156.34L1588.6,156.329L1588.57,156.31L1588.54,156.285L1588.52,156.271L1588.49,156.248L1588.44,156.217L1588.42,156.201L1588.31,156.123L1588.26,156.087L1588.22,156.061L1588.21,156.05L1588.18,156.028L1588.14,156.003L1588.13,155.989L1588.1,155.966L1588.05,155.932L1587.92,155.835L1587.87,155.797L1587.84,155.773L1587.82,155.761L1587.79,155.737L1587.76,155.711L1587.74,155.699L1587.71,155.675C1587.64,155.617 1587.56,155.558 1587.49,155.499L1587.46,155.476L1587.44,155.463L1587.41,155.436L1587.38,155.411L1587.37,155.4L1587.34,155.375L1587.29,155.334L1587.16,155.231L1587.12,155.192L1587.09,155.17L1587.08,155.157L1587.04,155.127L1587.01,155.102L1587,155.092L1586.97,155.067L1586.92,155.022L1586.8,154.916L1586.75,154.876L1586.73,154.855L1586.71,154.841L1586.68,154.81L1586.65,154.784L1586.64,154.775L1586.61,154.751L1586.56,154.702L1586.44,154.593L1586.39,154.552L1586.37,154.532L1586.36,154.518L1586.32,154.483L1586.28,154.45L1586.26,154.427L1586.2,154.372L1586.11,154.285L1586.09,154.261L1586.04,154.219L1586.02,154.201L1586.01,154.186L1585.97,154.148L1585.94,154.117L1585.92,154.094L1585.86,154.035L1585.79,153.967L1585.74,153.921L1585.7,153.879L1585.68,153.862L1585.67,153.846L1585.63,153.805L1585.6,153.776L1585.58,153.755L1585.52,153.689L1585.45,153.622L1585.41,153.572L1585.37,153.53L1585.35,153.514L1585.34,153.498L1585.3,153.454L1585.19,153.335L1585.13,153.269L1585.08,153.216L1585.04,153.174L1585.03,153.159L1585.02,153.142L1584.97,153.095L1584.87,152.974L1584.81,152.908L1584.76,152.851L1584.73,152.81L1584.72,152.796L1584.7,152.778L1584.66,152.728L1584.56,152.604L1584.5,152.54L1584.45,152.479L1584.42,152.439L1584.41,152.426L1584.39,152.407C1584.33,152.326 1584.27,152.246 1584.2,152.164L1584.15,152.1L1584.12,152.06L1584.11,152.048L1584.1,152.028C1584.04,151.946 1583.97,151.864 1583.91,151.782L1583.86,151.713L1583.83,151.674L1583.83,151.663L1583.81,151.641C1583.75,151.559 1583.69,151.476 1583.63,151.392L1583.62,151.369L1583.61,151.358L1583.58,151.319L1583.55,151.282L1583.55,151.271L1583.53,151.248C1583.47,151.164 1583.42,151.08 1583.36,150.995L1583.34,150.972L1583.34,150.959L1583.31,150.918L1583.28,150.882L1583.28,150.872L1583.26,150.846C1583.2,150.762 1583.15,150.677 1583.1,150.592L1583.08,150.568L1583.07,150.552L1583.05,150.511L1583.02,150.476L1583.02,150.466L1583,150.437L1582.96,150.373L1582.88,150.235L1582.84,150.183L1582.83,150.157L1582.82,150.139L1582.79,150.096L1582.77,150.064L1582.77,150.054L1582.75,150.02L1582.71,149.956L1582.66,149.881L1582.63,149.816L1582.6,149.767L1582.59,149.74L1582.57,149.718L1582.55,149.675L1582.53,149.635L1582.5,149.595L1582.47,149.533L1582.43,149.469L1582.41,149.423L1582.39,149.391L1582.37,149.345L1582.35,149.317L1582.34,149.29L1582.31,149.248L1582.29,149.21L1582.27,149.16L1582.24,149.104L1582.21,149.049L1582.18,148.995L1582.16,148.959L1582.14,148.918L1582.13,148.887L1582.11,148.855L1582.09,148.814L1582.07,148.779L1582.04,148.714L1582.02,148.668L1582,148.623L1581.97,148.561L1581.96,148.546L1581.95,148.522L1581.93,148.484L1581.91,148.451L1581.9,148.413L1581.88,148.374L1581.86,148.341L1581.82,148.253L1581.81,148.226L1581.79,148.189L1581.76,148.121L1581.75,148.101L1581.74,148.078L1581.73,148.046L1581.71,148.01L1581.69,147.964L1581.67,147.929L1581.67,147.912C1581.65,147.87 1581.63,147.828 1581.61,147.785L1581.57,147.675L1581.56,147.65L1581.55,147.629L1581.54,147.601L1581.52,147.563L1581.5,147.506L1581.48,147.477L1581.48,147.465C1581.46,147.42 1581.44,147.375 1581.42,147.331L1581.38,147.224L1581.37,147.192L1581.36,147.173L1581.35,147.152L1581.34,147.11L1581.31,147.041L1581.3,147.012C1581.28,146.965 1581.26,146.918 1581.25,146.87L1581.21,146.767L1581.19,146.728L1581.19,146.713L1581.18,146.697L1581.17,146.652L1581.13,146.558L1581.13,146.555C1581.11,146.505 1581.1,146.454 1581.08,146.404L1581.05,146.305L1581.03,146.257L1581.02,146.238C1580.97,146.086 1580.92,145.933 1580.88,145.779L1580.87,145.774ZM1557.99,97.268C1569.03,97.268 1577.99,106.23 1577.99,117.268C1577.99,128.306 1569.03,137.268 1557.99,137.268C1546.95,137.268 1537.99,128.306 1537.99,117.268C1537.99,106.23 1546.95,97.268 1557.99,97.268ZM1641.99,97.268C1630.95,97.268 1621.99,106.23 1621.99,117.268C1621.99,128.306 1630.95,137.268 1641.99,137.268C1653.03,137.268 1661.99,128.306 1661.99,117.268C1661.99,106.23 1653.03,97.268 1641.99,97.268Z" style="fill:white;"/>
        </g>
    </g>
</svg>
