<?xml version="1.0" encoding="UTF-8" standalone="no"?>
<!DOCTYPE svg PUBLIC "-//W3C//DTD SVG 1.1//EN" "http://www.w3.org/Graphics/SVG/1.1/DTD/svg11.dtd">
<svg width="100%" height="100%" viewBox="0 0 1024 1025" version="1.1" xmlns="http://www.w3.org/2000/svg" xmlns:xlink="http://www.w3.org/1999/xlink" xml:space="preserve" xmlns:serif="http://www.serif.com/" style="fill-rule:evenodd;clip-rule:evenodd;stroke-linejoin:round;stroke-miterlimit:2;">
    <g transform="matrix(12.0471,0,0,12.0471,-19991.9,-3059.19)">
        <path d="M1685.15,309.839C1685.15,306.122 1688.17,303.104 1691.88,303.104L1712.09,303.104C1715.8,303.104 1718.82,306.122 1718.82,309.839C1718.82,319.131 1711.28,326.676 1701.99,326.676C1692.69,326.676 1685.15,319.131 1685.15,309.839ZM1716.5,292.934L1735.49,292.934C1739.21,292.934 1742.23,295.951 1742.23,299.668C1742.23,308.961 1734.68,316.505 1725.39,316.505C1724.64,316.505 1723.9,316.456 1723.18,316.361C1723.81,314.299 1724.15,312.109 1724.15,309.839C1724.15,303.683 1719.54,298.597 1713.58,297.866C1714.84,296.433 1715.84,294.764 1716.5,292.934ZM1687.47,292.934C1688.13,294.764 1689.13,296.433 1690.39,297.866C1684.43,298.597 1679.82,303.683 1679.82,309.839C1679.82,312.109 1680.16,314.299 1680.79,316.361C1680.07,316.456 1679.33,316.505 1678.58,316.505C1669.29,316.505 1661.75,308.961 1661.75,299.668C1661.75,295.951 1664.76,292.934 1668.48,292.934L1687.47,292.934ZM1701.99,277.578C1707.56,277.578 1712.09,282.104 1712.09,287.68C1712.09,293.255 1707.56,297.782 1701.99,297.782C1696.41,297.782 1691.88,293.255 1691.88,287.68C1691.88,282.104 1696.41,277.578 1701.99,277.578ZM1725.39,267.407C1730.96,267.407 1735.49,271.933 1735.49,277.509C1735.49,283.084 1730.96,287.611 1725.39,287.611C1719.81,287.611 1715.29,283.084 1715.29,277.509C1715.29,271.933 1719.81,267.407 1725.39,267.407ZM1678.58,267.407C1684.16,267.407 1688.68,271.933 1688.68,277.509C1688.68,283.084 1684.16,287.611 1678.58,287.611C1673.01,287.611 1668.48,283.084 1668.48,277.509C1668.48,271.933 1673.01,267.407 1678.58,267.407Z" style="fill:white;"/>
    </g>
</svg>
