<?xml version="1.0" encoding="UTF-8" standalone="no"?>
<!DOCTYPE svg PUBLIC "-//W3C//DTD SVG 1.1//EN" "http://www.w3.org/Graphics/SVG/1.1/DTD/svg11.dtd">
<svg width="100%" height="100%" viewBox="0 0 1024 1025" version="1.1" xmlns="http://www.w3.org/2000/svg" xmlns:xlink="http://www.w3.org/1999/xlink" xml:space="preserve" xmlns:serif="http://www.serif.com/" style="fill-rule:evenodd;clip-rule:evenodd;stroke-linejoin:round;stroke-miterlimit:2;">
    <g transform="matrix(12.0471,0,0,12.0471,-19991.9,-3059.19)">
        <path d="M1674.17,324.251L1689.83,324.356L1676,329.528C1678.58,333.75 1683.67,337.065 1690.44,336.527C1699.61,335.8 1705.66,325.197 1708.12,314.607C1701.34,316.364 1692.15,314.913 1687.48,314.447C1677.51,313.451 1673.61,318.646 1674.17,324.251ZM1708.13,279.846L1705.74,291.956L1700.95,275.512C1694.4,272.643 1688.26,273.115 1686.28,280.367C1683.92,289.05 1699.97,292.202 1691.96,309.407C1705.79,311.551 1717.92,308.154 1720.28,300.527C1722.1,294.659 1715.83,285.726 1708.13,279.846ZM1726.35,291.349C1728.28,291.349 1729.85,292.917 1729.85,294.849C1729.85,296.781 1728.28,298.349 1726.35,298.349C1724.42,298.349 1722.85,296.781 1722.85,294.849C1722.85,292.917 1724.42,291.349 1726.35,291.349ZM1723.61,281.631C1726.09,281.631 1728.11,283.647 1728.11,286.131C1728.11,288.614 1726.09,290.631 1723.61,290.631C1721.12,290.631 1719.11,288.614 1719.11,286.131C1719.11,283.647 1721.12,281.631 1723.61,281.631ZM1717.63,272.905C1720.38,272.905 1722.63,275.145 1722.63,277.905C1722.63,280.664 1720.38,282.905 1717.63,282.905C1714.87,282.905 1712.63,280.664 1712.63,277.905C1712.63,275.145 1714.87,272.905 1717.63,272.905ZM1708.89,265.058C1711.92,265.058 1714.39,267.522 1714.39,270.558C1714.39,273.593 1711.92,276.058 1708.89,276.058C1705.85,276.058 1703.39,273.593 1703.39,270.558C1703.39,267.522 1705.85,265.058 1708.89,265.058ZM1695.58,256.289C1699.72,256.289 1703.08,259.649 1703.08,263.789C1703.08,267.928 1699.72,271.289 1695.58,271.289C1691.44,271.289 1688.08,267.928 1688.08,263.789C1688.08,259.649 1691.44,256.289 1695.58,256.289Z" style="fill:white;"/>
    </g>
</svg>
