<?xml version="1.0" encoding="UTF-8" standalone="no"?>
<!DOCTYPE svg PUBLIC "-//W3C//DTD SVG 1.1//EN" "http://www.w3.org/Graphics/SVG/1.1/DTD/svg11.dtd">
<svg width="100%" height="100%" viewBox="0 0 115 115" version="1.1" xmlns="http://www.w3.org/2000/svg" xmlns:xlink="http://www.w3.org/1999/xlink" xml:space="preserve" xmlns:serif="http://www.serif.com/" style="fill-rule:evenodd;clip-rule:evenodd;stroke-linejoin:round;stroke-miterlimit:2;">
    <g transform="matrix(1.00759,0,0,1.10701,-22.1704,-39.3065)">
        <rect x="22.003" y="35.507" width="114.133" height="103.884" style="fill:none;"/>
        <g transform="matrix(-0.26508,-0.151373,-0.118856,0.179326,531.281,208.915)">
            <path d="M1408.66,661.227C1415.13,709.812 1435.59,746.645 1482.06,761.627C1506.35,739.792 1515.83,709.337 1474.66,676.227C1440.86,649.038 1424.82,647.663 1402.06,610.827C1384.08,715.171 1394.69,780.161 1458.86,771.427C1424.54,746.252 1405.65,710.935 1408.66,661.227ZM1435.09,598.51C1394.12,504.639 1464.11,425.51 1518.09,468.51C1560.32,507.997 1537.96,536.458 1487.59,569.833C1458.78,595.167 1464.23,624.343 1466,642.51C1396.65,601.397 1347.9,515.277 1431.09,463.01C1402.1,510.451 1410.73,555.07 1435.09,598.51ZM1371.14,477.272C1371.08,477.551 1371.03,477.836 1371.01,478.126C1370.62,482.446 1374.58,486.334 1379.84,486.804L1384.25,487.198C1389.51,487.667 1394.1,484.541 1394.48,480.221C1394.51,479.931 1394.52,479.643 1394.5,479.357C1394.57,479.047 1394.62,478.73 1394.64,478.408L1395.4,469.952C1395.87,464.632 1391,459.843 1384.52,459.265C1378.04,458.687 1372.4,462.537 1371.92,467.857L1371.17,476.313C1371.14,476.635 1371.13,476.955 1371.14,477.272ZM1393,448.08C1392.93,448.43 1392.88,448.787 1392.85,449.151C1392.37,454.561 1396.49,459.356 1402.06,459.853L1406.74,460.271C1412.31,460.768 1417.22,456.779 1417.7,451.369C1417.73,451.005 1417.75,450.645 1417.74,450.287C1417.81,449.898 1417.87,449.501 1417.9,449.098L1418.85,438.509C1419.44,431.845 1414.36,425.939 1407.5,425.327C1400.64,424.715 1394.59,429.627 1394,436.291L1393.05,446.88C1393.01,447.283 1393,447.684 1393,448.08ZM1510.13,431.63C1509.99,432.354 1509.89,433.092 1509.83,433.842C1508.95,445.01 1517.3,454.795 1528.46,455.681L1537.84,456.424C1549.01,457.309 1558.79,448.962 1559.68,437.794C1559.74,437.044 1559.75,436.3 1559.73,435.563C1559.88,434.758 1559.98,433.939 1560.05,433.107L1561.78,411.247C1562.87,397.492 1552.59,385.439 1538.84,384.349C1525.08,383.258 1513.03,393.54 1511.94,407.294L1510.2,429.154C1510.14,429.987 1510.11,430.812 1510.13,431.63ZM1424.96,421.699C1424.87,422.104 1424.81,422.517 1424.77,422.938C1424.21,429.201 1429.28,434.779 1436.09,435.386L1441.8,435.896C1448.6,436.503 1454.58,431.911 1455.14,425.648C1455.18,425.227 1455.19,424.809 1455.18,424.395C1455.27,423.945 1455.33,423.486 1455.37,423.019L1456.47,410.759C1457.15,403.044 1450.91,396.174 1442.53,395.426C1434.15,394.679 1426.79,400.335 1426.1,408.049L1425.01,420.309C1424.97,420.776 1424.95,421.239 1424.96,421.699ZM1464.03,410.39C1463.94,410.853 1463.87,411.324 1463.83,411.804C1463.27,418.945 1469.15,425.246 1476.97,425.866L1483.53,426.386C1491.35,427.006 1498.16,421.712 1498.73,414.571C1498.76,414.091 1498.77,413.615 1498.75,413.143C1498.85,412.629 1498.92,412.105 1498.96,411.573L1500.07,397.595C1500.77,388.799 1493.52,381.038 1483.89,380.275C1474.26,379.511 1465.88,386.032 1465.18,394.828L1464.07,408.806C1464.03,409.339 1464.01,409.867 1464.03,410.39Z" style="fill:white;"/>
        </g>
    </g>
</svg>
