<?xml version="1.0" encoding="UTF-8" standalone="no"?>
<!DOCTYPE svg PUBLIC "-//W3C//DTD SVG 1.1//EN" "http://www.w3.org/Graphics/SVG/1.1/DTD/svg11.dtd">
<svg width="100%" height="100%" viewBox="0 0 115 115" version="1.1" xmlns="http://www.w3.org/2000/svg" xmlns:xlink="http://www.w3.org/1999/xlink" xml:space="preserve" xmlns:serif="http://www.serif.com/" style="fill-rule:evenodd;clip-rule:evenodd;stroke-linejoin:round;stroke-miterlimit:2;">
    <g transform="matrix(1.00759,0,0,1.10701,-22.1704,-39.3065)">
        <rect x="22.003" y="35.507" width="114.133" height="103.884" style="fill:none;"/>
        <g transform="matrix(0.84051,0,0,0.772384,-1402.2,-3.4487)">
            <path d="M1759.54,169.516L1759.54,151.34C1759.42,151.278 1759.29,151.212 1759.17,151.142L1729.91,134.175L1729.91,148.797C1729.91,149.33 1730.18,149.828 1730.62,150.125L1759.54,169.516ZM1765.14,151.34L1765.14,169.516L1794.07,150.125C1794.51,149.828 1794.78,149.33 1794.78,148.797L1794.78,134.175L1765.51,151.142C1765.39,151.212 1765.27,151.278 1765.14,151.34ZM1802.23,123.953L1802.23,152.621C1802.23,153.316 1802.68,153.932 1803.34,154.144C1804,154.356 1804.72,154.115 1805.13,153.549C1805.13,153.549 1807.13,151.202 1808.14,151.202C1809.14,151.202 1811.15,153.549 1811.15,153.549C1811.55,154.115 1812.28,154.356 1812.94,154.144C1813.6,153.932 1814.05,153.316 1814.05,152.621L1814.05,117.097L1816.58,115.629C1817.39,115.158 1817.88,114.361 1817.88,113.508C1817.88,112.655 1817.39,111.859 1816.58,111.388L1763.95,80.867C1762.98,80.303 1761.71,80.303 1760.74,80.867L1708.1,111.388C1707.29,111.859 1706.8,112.655 1706.8,113.508C1706.8,114.361 1707.29,115.158 1708.1,115.629L1760.74,146.15C1761.71,146.714 1762.98,146.714 1763.95,146.15L1802.23,123.953Z" style="fill:white;"/>
        </g>
    </g>
</svg>
