<?xml version="1.0" encoding="UTF-8" standalone="no"?>
<!DOCTYPE svg PUBLIC "-//W3C//DTD SVG 1.1//EN" "http://www.w3.org/Graphics/SVG/1.1/DTD/svg11.dtd">
<svg width="100%" height="100%" viewBox="0 0 1024 1025" version="1.1" xmlns="http://www.w3.org/2000/svg" xmlns:xlink="http://www.w3.org/1999/xlink" xml:space="preserve" xmlns:serif="http://www.serif.com/" style="fill-rule:evenodd;clip-rule:evenodd;stroke-linejoin:round;stroke-miterlimit:2;">
    <g transform="matrix(5.68966,0,0,5.68966,-9806,-2112.23)">
        <path d="M1821.06,401.706C1826.52,402.396 1831.75,403.822 1836.65,405.879L1856.97,385.884L1849.8,413.492C1854.09,416.764 1857.93,420.601 1861.2,424.892L1888.81,417.728L1868.82,438.043C1870.87,442.945 1872.3,448.174 1872.99,453.632L1900.47,461.228L1872.99,468.825C1872.3,474.283 1870.87,479.513 1868.82,484.413L1888.81,504.728L1861.2,497.565C1857.93,501.855 1854.09,505.692 1849.8,508.964L1856.97,536.572L1836.65,516.577C1831.75,518.635 1826.52,520.06 1821.06,520.751L1813.47,548.228L1805.87,520.751C1800.41,520.06 1795.18,518.635 1790.28,516.577L1769.97,536.572L1777.13,508.964C1772.84,505.692 1769,501.855 1765.73,497.565L1738.12,504.728L1758.12,484.413C1756.06,479.512 1754.63,474.282 1753.94,468.825L1726.47,461.228L1753.94,453.632C1754.63,448.174 1756.06,442.944 1758.12,438.043L1738.12,417.728L1765.73,424.892C1769,420.602 1772.84,416.765 1777.13,413.492L1769.97,385.884L1790.28,405.879C1795.18,403.821 1800.41,402.396 1805.87,401.706L1813.47,374.228L1821.06,401.706ZM1813.47,409.228C1784.77,409.228 1761.47,432.529 1761.47,461.228C1761.47,489.928 1784.77,513.228 1813.47,513.228C1842.17,513.228 1865.47,489.928 1865.47,461.228C1865.47,432.529 1842.17,409.228 1813.47,409.228ZM1813.47,415.895C1838.49,415.895 1858.8,436.208 1858.8,461.228C1858.8,486.248 1838.49,506.562 1813.47,506.562C1788.45,506.562 1768.13,486.248 1768.13,461.228C1768.13,436.208 1788.45,415.895 1813.47,415.895Z" style="fill:rgb(237,206,62);"/>
    </g>
</svg>
