<?xml version="1.0" encoding="UTF-8" standalone="no"?>
<!DOCTYPE svg PUBLIC "-//W3C//DTD SVG 1.1//EN" "http://www.w3.org/Graphics/SVG/1.1/DTD/svg11.dtd">
<svg width="100%" height="100%" viewBox="0 0 115 115" version="1.1" xmlns="http://www.w3.org/2000/svg" xmlns:xlink="http://www.w3.org/1999/xlink" xml:space="preserve" xmlns:serif="http://www.serif.com/" style="fill-rule:evenodd;clip-rule:evenodd;stroke-linejoin:round;stroke-miterlimit:2;">
    <g transform="matrix(1.00759,0,0,1.10701,-22.1704,-39.3065)">
        <rect x="22.003" y="35.507" width="114.133" height="103.884" style="fill:none;"/>
        <g transform="matrix(0.740513,0,0,0.674013,-1098.59,-127.943)">
            <path d="M1536.02,310.417C1536.01,310.427 1536.01,310.437 1536,310.448C1544.23,289.435 1564.69,274.539 1588.6,274.539C1619.77,274.539 1645.07,299.84 1645.07,331.004C1645.07,348.209 1637.36,363.627 1625.2,373.988C1619.26,379.054 1612.5,382.066 1605,383.692C1604.89,383.715 1604.79,383.728 1604.69,383.759C1602.38,384.47 1602.11,382.934 1604.05,382.397C1604.17,382.363 1604.29,382.298 1604.42,382.247C1607.41,381.085 1610.24,379.713 1612.73,378.364C1626.65,370.857 1636.11,356.144 1636.11,339.239C1636.11,314.72 1616.2,294.813 1591.68,294.813C1577.43,294.813 1564.74,301.539 1556.61,311.99C1556.6,312.005 1556.59,312.02 1556.58,312.036L1556.53,312.103C1555.6,313.306 1554.73,314.559 1553.93,315.856L1553.88,315.928C1552.49,317.932 1549.18,317.857 1546.09,317.857C1540.3,317.857 1535.61,315.249 1535.61,312.036C1535.61,311.744 1535.66,311.427 1535.73,311.163C1535.79,310.917 1535.91,310.689 1536,310.454C1536.01,310.441 1536.01,310.429 1536.02,310.417ZM1584.66,326.168C1580.01,328.66 1576.83,333.566 1576.82,339.21C1576.82,339.382 1576.83,339.554 1576.83,339.726L1557.42,350.933C1555.22,352.204 1554.46,355.023 1555.74,357.225L1558.11,361.335C1559.38,363.536 1562.2,364.292 1564.4,363.02L1583.81,351.813C1586.08,353.226 1588.75,354.045 1591.61,354.05C1599.79,354.064 1606.44,347.438 1606.45,339.262C1606.46,333.599 1603.29,328.669 1598.62,326.168L1598.62,310.515C1598.62,307.973 1596.55,305.909 1594.01,305.909L1589.27,305.909C1586.72,305.909 1584.66,307.973 1584.66,310.515L1584.66,326.168ZM1591.64,332.257C1587.79,332.257 1584.66,335.384 1584.66,339.236C1584.66,343.088 1587.79,346.215 1591.64,346.215C1595.49,346.215 1598.62,343.088 1598.62,339.236C1598.62,335.384 1595.49,332.257 1591.64,332.257ZM1540.03,282.027C1538.98,280.565 1539.32,278.529 1540.78,277.482L1549.58,271.187C1551.04,270.14 1553.08,270.478 1554.12,271.94L1556.08,274.669C1557.12,276.131 1556.78,278.167 1555.32,279.214L1546.53,285.509C1545.07,286.555 1543.03,286.218 1541.98,284.756L1540.03,282.027ZM1643.37,282.027C1644.41,280.565 1644.08,278.529 1642.62,277.482L1633.82,271.187C1632.36,270.14 1630.32,270.478 1629.28,271.94L1627.32,274.669C1626.28,276.131 1626.61,278.167 1628.08,279.214L1636.87,285.509C1638.33,286.555 1640.37,286.218 1641.41,284.756L1643.37,282.027ZM1576.27,260.091C1576.27,257.6 1578.29,255.578 1580.78,255.578L1602.49,255.578C1604.98,255.578 1607.01,257.6 1607.01,260.091L1607.01,264.74C1607.01,267.231 1604.98,269.253 1602.49,269.253L1580.78,269.253C1578.29,269.253 1576.27,267.231 1576.27,264.74L1576.27,260.091Z" style="fill:white;"/>
        </g>
    </g>
</svg>
