<?xml version="1.0" encoding="UTF-8" standalone="no"?>
<!DOCTYPE svg PUBLIC "-//W3C//DTD SVG 1.1//EN" "http://www.w3.org/Graphics/SVG/1.1/DTD/svg11.dtd">
<svg width="100%" height="100%" viewBox="0 0 225 225" version="1.1" xmlns="http://www.w3.org/2000/svg" xmlns:xlink="http://www.w3.org/1999/xlink" xml:space="preserve" xmlns:serif="http://www.serif.com/" style="fill-rule:evenodd;clip-rule:evenodd;stroke-linejoin:round;stroke-miterlimit:2;">
    <g transform="matrix(1,0,0,1,-117.22,-786.994)">
        <path d="M229.72,831.494C267.251,831.494 297.72,861.964 297.72,899.494C297.72,937.024 267.251,967.494 229.72,967.494C192.19,967.494 161.72,937.024 161.72,899.494C161.72,861.964 192.19,831.494 229.72,831.494ZM229.72,846.281C200.352,846.281 176.508,870.125 176.508,899.494C176.508,928.863 200.352,952.707 229.72,952.707C259.089,952.707 282.933,928.863 282.933,899.494C282.933,870.125 259.089,846.281 229.72,846.281ZM229.72,854.707C254.439,854.707 274.508,874.775 274.508,899.494C274.508,924.212 254.439,944.281 229.72,944.281C205.002,944.281 184.933,924.212 184.933,899.494C184.933,874.775 205.002,854.707 229.72,854.707Z" style="fill:white;"/>
    </g>
</svg>
